<svg id="wave" style="transform:rotate(180deg); transition: 0.3s" viewBox="0 0 1440 230" version="1.1" xmlns="http://www.w3.org/2000/svg"><defs><linearGradient id="sw-gradient-0" x1="0" x2="0" y1="1" y2="0"><stop stop-color="rgba(106, 4, 15, 1)" offset="0%"></stop><stop stop-color="rgba(208, 0, 0, 1)" offset="100%"></stop></linearGradient></defs><path style="transform:translate(0, 0px); opacity:1" fill="url(#sw-gradient-0)" d="M0,138L80,115C160,92,320,46,480,42.2C640,38,800,77,960,107.3C1120,138,1280,161,1440,157.2C1600,153,1760,123,1920,122.7C2080,123,2240,153,2400,149.5C2560,146,2720,107,2880,80.5C3040,54,3200,38,3360,49.8C3520,61,3680,100,3840,118.8C4000,138,4160,138,4320,145.7C4480,153,4640,169,4800,164.8C4960,161,5120,138,5280,111.2C5440,84,5600,54,5760,38.3C5920,23,6080,23,6240,42.2C6400,61,6560,100,6720,122.7C6880,146,7040,153,7200,141.8C7360,130,7520,100,7680,103.5C7840,107,8000,146,8160,157.2C8320,169,8480,153,8640,141.8C8800,130,8960,123,9120,122.7C9280,123,9440,130,9600,111.2C9760,92,9920,46,10080,49.8C10240,54,10400,107,10560,115C10720,123,10880,84,11040,61.3C11200,38,11360,31,11440,26.8L11520,23L11520,230L11440,230C11360,230,11200,230,11040,230C10880,230,10720,230,10560,230C10400,230,10240,230,10080,230C9920,230,9760,230,9600,230C9440,230,9280,230,9120,230C8960,230,8800,230,8640,230C8480,230,8320,230,8160,230C8000,230,7840,230,7680,230C7520,230,7360,230,7200,230C7040,230,6880,230,6720,230C6560,230,6400,230,6240,230C6080,230,5920,230,5760,230C5600,230,5440,230,5280,230C5120,230,4960,230,4800,230C4640,230,4480,230,4320,230C4160,230,4000,230,3840,230C3680,230,3520,230,3360,230C3200,230,3040,230,2880,230C2720,230,2560,230,2400,230C2240,230,2080,230,1920,230C1760,230,1600,230,1440,230C1280,230,1120,230,960,230C800,230,640,230,480,230C320,230,160,230,80,230L0,230Z"></path></svg>